<?xml version="1.0" encoding="UTF-8" standalone="no"?>
<!-- Generator: Adobe Illustrator 16.0.3, SVG Export Plug-In . SVG Version: 6.00 Build 0)  -->

<svg
   xmlns:dc="http://purl.org/dc/elements/1.1/"
   xmlns:cc="http://creativecommons.org/ns#"
   xmlns:rdf="http://www.w3.org/1999/02/22-rdf-syntax-ns#"
   xmlns:svg="http://www.w3.org/2000/svg"
   xmlns="http://www.w3.org/2000/svg"
   xmlns:sodipodi="http://sodipodi.sourceforge.net/DTD/sodipodi-0.dtd"
   xmlns:inkscape="http://www.inkscape.org/namespaces/inkscape"
   version="1.1"
   id="Logo"
   x="0px"
   y="0px"
   width="198.425px"
   height="99.213px"
   viewBox="0 0 198.425 99.213"
   enable-background="new 0 0 198.425 99.213"
   xml:space="preserve"
   inkscape:version="0.48.4 r9939"
   sodipodi:docname="logonew.svg"><metadata
   id="metadata3109"><rdf:RDF><cc:Work
       rdf:about=""><dc:format>image/svg+xml</dc:format><dc:type
         rdf:resource="http://purl.org/dc/dcmitype/StillImage" /><dc:title></dc:title></cc:Work></rdf:RDF></metadata><defs
   id="defs3107" /><sodipodi:namedview
   pagecolor="#ffffff"
   bordercolor="#666666"
   borderopacity="1"
   objecttolerance="10"
   gridtolerance="10"
   guidetolerance="10"
   inkscape:pageopacity="0"
   inkscape:pageshadow="2"
   inkscape:window-width="1920"
   inkscape:window-height="1058"
   id="namedview3105"
   showgrid="false"
   inkscape:zoom="6.6624335"
   inkscape:cx="124.55441"
   inkscape:cy="54.620839"
   inkscape:window-x="1592"
   inkscape:window-y="-8"
   inkscape:window-maximized="1"
   inkscape:current-layer="Logo" />
<g
   id="g3049"
   style="fill:#000000">
	
	
	
	
	
	
	
	
	
	
	
	
	
	
	
	
	
	
<g
   style="font-size:38.47441100999999700px;font-style:normal;font-weight:normal;line-height:125%;letter-spacing:0px;word-spacing:0px;fill:#000000;fill-opacity:1;stroke:none;font-family:Sans"
   id="text3111"><g
     id="g3366"
     transform="matrix(0.45619558,0,0,0.45619558,-124.51183,-24.971668)"
     style="fill:#000000"><path
       d="m 349.221,217.784 -5.868,-21.6 h -0.072 l -5.94,21.6 h -3.564 l -6.588,-25.704 h 3.492 l 5.04,21.384 h 0.072 l 5.76,-21.384 h 3.708 l 5.688,21.384 h 0.072 l 5.22,-21.384 h 3.42 l -6.876,25.704 h -3.564 z"
       id="path3368"
       inkscape:connector-curvature="0"
       style="fill:#000000" /><path
       d="m 373.521,216.596 c -1.392,1.056 -3.145,1.584 -5.256,1.584 -1.488,0 -2.778,-0.24 -3.87,-0.72 -1.092,-0.479 -2.01,-1.152 -2.754,-2.016 -0.744,-0.864 -1.302,-1.896 -1.674,-3.096 -0.372,-1.2 -0.582,-2.508 -0.63,-3.924 0,-1.416 0.216,-2.712 0.648,-3.888 0.432,-1.176 1.038,-2.196 1.818,-3.06 0.779,-0.864 1.704,-1.536 2.772,-2.016 1.067,-0.479 2.237,-0.72 3.51,-0.72 1.656,0 3.03,0.342 4.122,1.026 1.092,0.684 1.968,1.554 2.628,2.61 0.66,1.057 1.116,2.208 1.368,3.456 0.252,1.249 0.354,2.437 0.306,3.564 h -13.932 c -0.024,0.816 0.072,1.59 0.288,2.322 0.216,0.732 0.563,1.38 1.044,1.944 0.479,0.564 1.092,1.014 1.836,1.35 0.744,0.336 1.62,0.504 2.628,0.504 1.296,0 2.358,-0.3 3.186,-0.9 0.828,-0.6 1.374,-1.512 1.638,-2.736 h 3.024 c -0.408,2.088 -1.308,3.66 -2.7,4.716 z m -0.737,-11.952 c -0.276,-0.648 -0.648,-1.206 -1.116,-1.674 -0.468,-0.468 -1.021,-0.84 -1.656,-1.116 -0.636,-0.275 -1.338,-0.414 -2.106,-0.414 -0.792,0 -1.506,0.139 -2.142,0.414 -0.636,0.276 -1.183,0.654 -1.638,1.134 -0.456,0.48 -0.816,1.038 -1.08,1.674 -0.264,0.636 -0.42,1.314 -0.468,2.034 h 10.692 c -0.049,-0.72 -0.211,-1.404 -0.486,-2.052 z"
       id="path3370"
       inkscape:connector-curvature="0"
       style="fill:#000000" /><path
       d="m 400.809,202.412 c -0.769,-0.648 -1.8,-0.972 -3.096,-0.972 -1.104,0 -2.028,0.205 -2.772,0.612 -0.744,0.408 -1.338,0.948 -1.782,1.62 -0.444,0.672 -0.762,1.446 -0.954,2.322 -0.192,0.876 -0.288,1.782 -0.288,2.718 0,0.864 0.102,1.704 0.306,2.52 0.204,0.816 0.522,1.542 0.954,2.178 0.432,0.636 0.996,1.146 1.692,1.53 0.696,0.384 1.524,0.576 2.484,0.576 1.512,0 2.694,-0.396 3.546,-1.188 0.852,-0.792 1.374,-1.908 1.566,-3.348 h 3.132 c -0.336,2.304 -1.194,4.081 -2.574,5.328 -1.38,1.248 -3.258,1.872 -5.634,1.872 -1.416,0 -2.67,-0.229 -3.762,-0.684 -1.092,-0.456 -2.004,-1.104 -2.736,-1.944 -0.732,-0.84 -1.284,-1.842 -1.656,-3.006 -0.373,-1.164 -0.558,-2.442 -0.558,-3.834 0,-1.392 0.18,-2.694 0.54,-3.906 0.36,-1.211 0.906,-2.268 1.638,-3.168 0.732,-0.9 1.65,-1.607 2.754,-2.124 1.104,-0.516 2.388,-0.774 3.852,-0.774 1.056,0 2.046,0.126 2.97,0.378 0.924,0.252 1.74,0.643 2.448,1.17 0.708,0.528 1.29,1.194 1.746,1.998 0.456,0.804 0.744,1.758 0.864,2.862 h -3.168 c -0.24,-1.176 -0.744,-2.088 -1.512,-2.736 z"
       id="path3372"
       inkscape:connector-curvature="0"
       style="fill:#000000" /><path
       d="m 411.789,199.172 v 3.924 h 0.072 c 0.744,-1.512 1.656,-2.628 2.736,-3.348 1.08,-0.72 2.448,-1.056 4.104,-1.008 v 3.24 c -1.224,0 -2.268,0.168 -3.132,0.504 -0.864,0.336 -1.561,0.828 -2.088,1.476 -0.528,0.648 -0.913,1.435 -1.152,2.358 -0.24,0.924 -0.36,1.986 -0.36,3.186 v 8.28 h -3.06 v -18.612 h 2.88 z"
       id="path3374"
       inkscape:connector-curvature="0"
       style="fill:#000000" /><path
       d="m 433.533,216.596 c -1.392,1.056 -3.145,1.584 -5.256,1.584 -1.488,0 -2.778,-0.24 -3.87,-0.72 -1.092,-0.479 -2.01,-1.152 -2.754,-2.016 -0.744,-0.864 -1.302,-1.896 -1.674,-3.096 -0.372,-1.2 -0.582,-2.508 -0.63,-3.924 0,-1.416 0.216,-2.712 0.648,-3.888 0.432,-1.176 1.038,-2.196 1.818,-3.06 0.779,-0.864 1.704,-1.536 2.772,-2.016 1.067,-0.479 2.237,-0.72 3.51,-0.72 1.656,0 3.03,0.342 4.122,1.026 1.092,0.684 1.968,1.554 2.628,2.61 0.66,1.057 1.116,2.208 1.368,3.456 0.252,1.249 0.354,2.437 0.306,3.564 h -13.932 c -0.024,0.816 0.072,1.59 0.288,2.322 0.216,0.732 0.563,1.38 1.044,1.944 0.479,0.564 1.092,1.014 1.836,1.35 0.744,0.336 1.62,0.504 2.628,0.504 1.296,0 2.358,-0.3 3.186,-0.9 0.828,-0.6 1.374,-1.512 1.638,-2.736 h 3.024 c -0.409,2.088 -1.309,3.66 -2.7,4.716 z m -0.738,-11.952 c -0.276,-0.648 -0.648,-1.206 -1.116,-1.674 -0.468,-0.468 -1.021,-0.84 -1.656,-1.116 -0.636,-0.275 -1.338,-0.414 -2.106,-0.414 -0.792,0 -1.506,0.139 -2.142,0.414 -0.636,0.276 -1.183,0.654 -1.638,1.134 -0.456,0.48 -0.816,1.038 -1.08,1.674 -0.264,0.636 -0.42,1.314 -0.468,2.034 h 10.692 c -0.049,-0.72 -0.211,-1.404 -0.486,-2.052 z"
       id="path3376"
       inkscape:connector-curvature="0"
       style="fill:#000000" /><path
       d="m 456.176,217.712 c -0.528,0.312 -1.26,0.468 -2.196,0.468 -0.792,0 -1.422,-0.222 -1.89,-0.666 -0.468,-0.444 -0.702,-1.17 -0.702,-2.178 -0.84,1.008 -1.818,1.734 -2.934,2.178 -1.116,0.444 -2.322,0.666 -3.618,0.666 -0.84,0 -1.638,-0.096 -2.394,-0.288 -0.756,-0.192 -1.41,-0.492 -1.962,-0.9 -0.553,-0.408 -0.99,-0.941 -1.314,-1.602 -0.324,-0.66 -0.486,-1.458 -0.486,-2.394 0,-1.056 0.18,-1.92 0.54,-2.592 0.36,-0.672 0.833,-1.218 1.422,-1.638 0.588,-0.419 1.26,-0.738 2.016,-0.954 0.756,-0.216 1.53,-0.396 2.322,-0.54 0.84,-0.167 1.638,-0.293 2.394,-0.378 0.756,-0.083 1.422,-0.204 1.998,-0.36 0.576,-0.156 1.032,-0.384 1.368,-0.684 0.336,-0.3 0.504,-0.738 0.504,-1.314 0,-0.671 -0.126,-1.211 -0.378,-1.62 -0.252,-0.408 -0.576,-0.72 -0.972,-0.936 -0.396,-0.216 -0.84,-0.36 -1.332,-0.432 -0.492,-0.072 -0.979,-0.108 -1.458,-0.108 -1.296,0 -2.376,0.247 -3.24,0.738 -0.864,0.492 -1.332,1.422 -1.404,2.79 h -3.06 c 0.048,-1.152 0.288,-2.124 0.72,-2.916 0.432,-0.792 1.008,-1.434 1.728,-1.926 0.72,-0.491 1.542,-0.846 2.466,-1.062 0.923,-0.216 1.914,-0.324 2.97,-0.324 0.84,0 1.674,0.06 2.502,0.18 0.828,0.12 1.578,0.365 2.25,0.736 0.672,0.372 1.212,0.893 1.62,1.563 0.408,0.67 0.612,1.544 0.612,2.622 v 9.556 c 0,0.719 0.042,1.246 0.126,1.581 0.084,0.335 0.366,0.502 0.846,0.502 0.264,0 0.576,-0.048 0.936,-0.144 v 2.376 z m -4.968,-9.54 c -0.384,0.287 -0.888,0.496 -1.512,0.627 -0.625,0.132 -1.278,0.239 -1.962,0.322 -0.684,0.084 -1.375,0.18 -2.07,0.287 -0.696,0.107 -1.32,0.281 -1.872,0.519 -0.553,0.238 -1.002,0.579 -1.35,1.021 -0.348,0.442 -0.522,1.045 -0.522,1.809 0,0.501 0.102,0.925 0.306,1.271 0.204,0.347 0.468,0.627 0.792,0.842 0.324,0.215 0.702,0.37 1.134,0.466 0.432,0.096 0.888,0.143 1.368,0.143 1.008,0 1.872,-0.137 2.592,-0.412 0.72,-0.275 1.308,-0.621 1.764,-1.039 0.456,-0.418 0.792,-0.872 1.008,-1.361 0.216,-0.49 0.324,-0.95 0.324,-1.379 v -3.116 z"
       id="path3378"
       inkscape:connector-curvature="0"
       style="fill:#000000" /><path
       d="m 466.976,199.172 v 2.7 h -3.708 v 11.556 c 0,0.36 0.03,0.648 0.09,0.864 0.06,0.216 0.174,0.384 0.342,0.504 0.168,0.12 0.402,0.198 0.702,0.234 0.3,0.036 0.689,0.054 1.17,0.054 h 1.404 v 2.7 h -2.34 c -0.792,0 -1.47,-0.054 -2.034,-0.162 -0.564,-0.108 -1.021,-0.306 -1.368,-0.594 -0.348,-0.288 -0.606,-0.696 -0.774,-1.224 -0.168,-0.528 -0.252,-1.224 -0.252,-2.088 v -11.844 h -3.168 v -2.7 h 3.168 v -5.58 h 3.06 v 5.58 h 3.708 z"
       id="path3380"
       inkscape:connector-curvature="0"
       style="fill:#000000" /><path
       d="m 483.535,216.596 c -1.393,1.056 -3.145,1.584 -5.256,1.584 -1.488,0 -2.778,-0.24 -3.87,-0.72 -1.092,-0.479 -2.01,-1.152 -2.754,-2.016 -0.744,-0.864 -1.302,-1.896 -1.674,-3.096 -0.372,-1.2 -0.582,-2.508 -0.63,-3.924 0,-1.416 0.216,-2.712 0.648,-3.888 0.432,-1.176 1.038,-2.196 1.818,-3.06 0.779,-0.864 1.704,-1.536 2.772,-2.016 1.067,-0.479 2.237,-0.72 3.51,-0.72 1.656,0 3.03,0.342 4.122,1.026 1.092,0.684 1.969,1.554 2.629,2.61 0.659,1.057 1.115,2.208 1.367,3.456 0.252,1.249 0.354,2.437 0.307,3.564 h -13.932 c -0.024,0.816 0.072,1.59 0.288,2.322 0.216,0.732 0.563,1.38 1.044,1.944 0.479,0.564 1.092,1.014 1.836,1.35 0.744,0.336 1.62,0.504 2.628,0.504 1.296,0 2.358,-0.3 3.186,-0.9 0.828,-0.6 1.374,-1.512 1.638,-2.736 h 3.024 c -0.41,2.088 -1.309,3.66 -2.701,4.716 z m -0.738,-11.952 c -0.275,-0.648 -0.647,-1.206 -1.115,-1.674 -0.469,-0.468 -1.021,-0.84 -1.656,-1.116 -0.636,-0.275 -1.338,-0.414 -2.106,-0.414 -0.792,0 -1.506,0.139 -2.142,0.414 -0.636,0.276 -1.183,0.654 -1.638,1.134 -0.456,0.48 -0.816,1.038 -1.08,1.674 -0.264,0.636 -0.42,1.314 -0.468,2.034 h 10.692 c -0.05,-0.72 -0.212,-1.404 -0.487,-2.052 z"
       id="path3382"
       inkscape:connector-curvature="0"
       style="fill:#000000" /><path
       d="m 510.822,202.412 c -0.768,-0.648 -1.8,-0.972 -3.096,-0.972 -1.104,0 -2.028,0.205 -2.771,0.612 -0.744,0.408 -1.339,0.948 -1.783,1.62 -0.443,0.672 -0.762,1.446 -0.953,2.322 -0.192,0.876 -0.288,1.782 -0.288,2.718 0,0.864 0.102,1.704 0.306,2.52 0.203,0.816 0.521,1.542 0.954,2.178 0.433,0.636 0.995,1.146 1.692,1.53 0.695,0.384 1.523,0.576 2.484,0.576 1.512,0 2.693,-0.396 3.545,-1.188 0.852,-0.792 1.374,-1.908 1.566,-3.348 h 3.132 c -0.337,2.304 -1.194,4.081 -2.573,5.328 -1.381,1.248 -3.259,1.872 -5.635,1.872 -1.416,0 -2.67,-0.229 -3.762,-0.684 -1.092,-0.455 -2.004,-1.104 -2.736,-1.944 -0.732,-0.84 -1.284,-1.842 -1.656,-3.006 -0.372,-1.164 -0.558,-2.442 -0.558,-3.834 0,-1.392 0.181,-2.694 0.54,-3.906 0.359,-1.211 0.906,-2.268 1.639,-3.168 0.731,-0.9 1.649,-1.607 2.754,-2.124 1.104,-0.516 2.387,-0.774 3.852,-0.774 1.056,0 2.046,0.126 2.97,0.378 0.924,0.252 1.74,0.643 2.448,1.17 0.707,0.528 1.289,1.194 1.746,1.998 0.455,0.804 0.744,1.758 0.863,2.862 h -3.168 c -0.24,-1.176 -0.744,-2.088 -1.512,-2.736 z"
       id="path3384"
       inkscape:connector-curvature="0"
       style="fill:#000000" /><path
       d="m 522.09,192.08 v 9.828 h 0.072 c 0.24,-0.576 0.576,-1.062 1.008,-1.458 0.433,-0.396 0.918,-0.72 1.459,-0.972 0.539,-0.252 1.104,-0.438 1.691,-0.558 0.587,-0.12 1.158,-0.18 1.711,-0.18 1.223,0 2.243,0.168 3.059,0.504 0.816,0.336 1.477,0.804 1.98,1.404 0.504,0.601 0.857,1.314 1.062,2.142 0.203,0.828 0.306,1.746 0.306,2.754 v 12.24 h -3.06 v -12.6 c 0,-1.152 -0.337,-2.063 -1.008,-2.736 -0.673,-0.672 -1.597,-1.008 -2.772,-1.008 -0.937,0 -1.746,0.144 -2.431,0.432 -0.684,0.288 -1.254,0.696 -1.709,1.224 -0.457,0.528 -0.799,1.146 -1.026,1.854 -0.229,0.708 -0.343,1.482 -0.343,2.322 v 10.512 H 519.03 V 192.08 h 3.06 z"
       id="path3386"
       inkscape:connector-curvature="0"
       style="fill:#000000" /><path
       d="m 552.223,216.596 c -1.393,1.056 -3.145,1.584 -5.256,1.584 -1.488,0 -2.779,-0.24 -3.871,-0.72 -1.092,-0.479 -2.01,-1.152 -2.754,-2.016 -0.744,-0.864 -1.302,-1.896 -1.674,-3.096 -0.372,-1.2 -0.582,-2.508 -0.63,-3.924 0,-1.416 0.216,-2.712 0.647,-3.888 0.433,-1.176 1.039,-2.196 1.818,-3.06 0.779,-0.864 1.704,-1.536 2.772,-2.016 1.067,-0.479 2.237,-0.72 3.51,-0.72 1.656,0 3.03,0.342 4.122,1.026 1.092,0.684 1.968,1.554 2.628,2.61 0.659,1.057 1.116,2.208 1.368,3.456 0.252,1.249 0.354,2.437 0.306,3.564 h -13.932 c -0.024,0.816 0.071,1.59 0.288,2.322 0.216,0.732 0.563,1.38 1.044,1.944 0.479,0.564 1.092,1.014 1.836,1.35 0.743,0.336 1.62,0.504 2.628,0.504 1.296,0 2.357,-0.3 3.186,-0.9 0.828,-0.6 1.374,-1.512 1.639,-2.736 h 3.023 c -0.407,2.088 -1.308,3.66 -2.698,4.716 z m -0.739,-11.952 c -0.276,-0.648 -0.648,-1.206 -1.116,-1.674 -0.468,-0.468 -1.021,-0.84 -1.655,-1.116 -0.637,-0.275 -1.339,-0.414 -2.107,-0.414 -0.791,0 -1.506,0.139 -2.141,0.414 -0.637,0.276 -1.184,0.654 -1.639,1.134 -0.456,0.48 -0.816,1.038 -1.08,1.674 -0.264,0.636 -0.42,1.314 -0.468,2.034 h 10.692 c -0.048,-0.72 -0.21,-1.404 -0.486,-2.052 z"
       id="path3388"
       inkscape:connector-curvature="0"
       style="fill:#000000" /><path
       d="m 561.258,199.172 v 2.736 h 0.072 c 1.391,-2.112 3.396,-3.168 6.012,-3.168 1.152,0 2.195,0.24 3.132,0.72 0.937,0.48 1.596,1.296 1.979,2.448 0.625,-1.008 1.446,-1.788 2.467,-2.34 1.02,-0.552 2.142,-0.828 3.365,-0.828 0.937,0 1.783,0.103 2.539,0.306 0.756,0.204 1.403,0.522 1.943,0.954 0.54,0.432 0.96,0.99 1.26,1.674 0.301,0.684 0.45,1.506 0.45,2.466 v 13.644 h -3.06 V 205.58 c 0,-0.576 -0.049,-1.116 -0.145,-1.62 -0.096,-0.504 -0.275,-0.941 -0.539,-1.314 -0.266,-0.372 -0.631,-0.666 -1.099,-0.882 -0.468,-0.216 -1.074,-0.324 -1.817,-0.324 -1.513,0 -2.701,0.432 -3.564,1.296 -0.864,0.864 -1.297,2.016 -1.297,3.456 v 11.592 h -3.059 V 205.58 c 0,-0.6 -0.055,-1.152 -0.162,-1.656 -0.108,-0.504 -0.295,-0.942 -0.559,-1.314 -0.264,-0.372 -0.618,-0.66 -1.062,-0.864 -0.443,-0.204 -1.014,-0.306 -1.709,-0.306 -0.889,0 -1.65,0.18 -2.287,0.54 -0.636,0.36 -1.151,0.792 -1.547,1.296 -0.396,0.504 -0.685,1.026 -0.865,1.566 -0.18,0.54 -0.27,0.99 -0.27,1.35 v 11.592 h -3.06 v -18.612 h 2.882 z"
       id="path3390"
       inkscape:connector-curvature="0"
       style="fill:#000000" /><path
       d="m 589.266,195.824 v -3.744 h 3.061 v 3.744 h -3.061 z m 3.06,3.348 v 18.612 h -3.061 v -18.612 h 3.061 z"
       id="path3392"
       inkscape:connector-curvature="0"
       style="fill:#000000" /><path
       d="m 599.418,213.625 c 0.287,0.468 0.666,0.841 1.133,1.116 0.469,0.276 0.996,0.474 1.584,0.594 0.588,0.121 1.194,0.18 1.818,0.18 0.48,0 0.984,-0.036 1.512,-0.108 0.528,-0.072 1.014,-0.204 1.459,-0.396 0.443,-0.192 0.81,-0.474 1.098,-0.846 0.288,-0.372 0.432,-0.846 0.432,-1.422 0,-0.792 -0.301,-1.392 -0.9,-1.8 -0.599,-0.408 -1.35,-0.738 -2.25,-0.99 -0.899,-0.252 -1.877,-0.479 -2.934,-0.684 -1.057,-0.204 -2.033,-0.492 -2.934,-0.864 -0.901,-0.372 -1.65,-0.894 -2.25,-1.566 -0.6,-0.672 -0.9,-1.608 -0.9,-2.808 0,-0.936 0.21,-1.74 0.631,-2.412 0.419,-0.671 0.959,-1.218 1.619,-1.638 0.66,-0.42 1.404,-0.732 2.232,-0.936 0.828,-0.204 1.65,-0.306 2.466,-0.306 1.056,0 2.028,0.09 2.916,0.27 0.888,0.18 1.674,0.492 2.358,0.936 0.684,0.444 1.229,1.044 1.638,1.8 0.407,0.756 0.647,1.698 0.72,2.826 h -3.06 c -0.049,-0.6 -0.204,-1.098 -0.468,-1.494 -0.265,-0.396 -0.601,-0.714 -1.008,-0.954 -0.409,-0.239 -0.859,-0.414 -1.351,-0.522 -0.492,-0.108 -0.99,-0.162 -1.494,-0.162 -0.456,0 -0.918,0.036 -1.386,0.108 -0.469,0.072 -0.895,0.198 -1.278,0.378 -0.384,0.18 -0.696,0.42 -0.937,0.72 -0.24,0.301 -0.359,0.69 -0.359,1.17 0,0.528 0.186,0.966 0.559,1.314 0.371,0.348 0.846,0.636 1.422,0.864 0.576,0.229 1.224,0.42 1.943,0.576 0.721,0.156 1.44,0.318 2.16,0.486 0.768,0.168 1.518,0.373 2.25,0.612 0.732,0.24 1.38,0.558 1.943,0.954 0.564,0.396 1.021,0.895 1.369,1.494 0.348,0.6 0.521,1.344 0.521,2.232 0,1.128 -0.234,2.064 -0.702,2.808 -0.468,0.744 -1.079,1.344 -1.836,1.8 -0.756,0.457 -1.608,0.774 -2.556,0.954 -0.949,0.18 -1.891,0.27 -2.826,0.27 -1.032,0 -2.016,-0.108 -2.952,-0.324 -0.937,-0.216 -1.764,-0.57 -2.483,-1.062 -0.721,-0.491 -1.297,-1.139 -1.729,-1.944 -0.432,-0.804 -0.672,-1.782 -0.72,-2.934 h 3.06 c 0.025,0.673 0.181,1.243 0.47,1.71 z"
       id="path3394"
       inkscape:connector-curvature="0"
       style="fill:#000000" /><path
       d="m 623.033,199.172 v 2.7 h -3.708 v 11.556 c 0,0.36 0.03,0.648 0.091,0.864 0.059,0.216 0.174,0.384 0.342,0.504 0.168,0.12 0.401,0.198 0.701,0.234 0.301,0.036 0.689,0.054 1.17,0.054 h 1.404 v 2.7 h -2.34 c -0.792,0 -1.471,-0.054 -2.033,-0.162 -0.564,-0.108 -1.021,-0.306 -1.369,-0.594 -0.348,-0.288 -0.605,-0.696 -0.773,-1.224 -0.168,-0.528 -0.252,-1.224 -0.252,-2.088 v -11.844 h -3.168 v -2.7 h 3.168 v -5.58 h 3.06 v 5.58 h 3.707 z"
       id="path3396"
       inkscape:connector-curvature="0"
       style="fill:#000000" /><path
       d="m 629.189,199.172 v 3.924 h 0.071 c 0.743,-1.512 1.656,-2.628 2.735,-3.348 1.08,-0.72 2.449,-1.056 4.104,-1.008 v 3.24 c -1.224,0 -2.268,0.168 -3.132,0.504 -0.863,0.336 -1.561,0.828 -2.088,1.476 -0.528,0.648 -0.912,1.435 -1.152,2.358 -0.24,0.923 -0.359,1.986 -0.359,3.186 v 8.28 h -3.061 v -18.612 h 2.882 z"
       id="path3398"
       inkscape:connector-curvature="0"
       style="fill:#000000" /><path
       d="m 645.713,220.268 c -0.36,0.912 -0.715,1.68 -1.062,2.304 -0.348,0.624 -0.732,1.134 -1.152,1.53 -0.42,0.396 -0.888,0.684 -1.403,0.864 -0.517,0.18 -1.11,0.27 -1.782,0.27 -0.359,0 -0.72,-0.024 -1.08,-0.072 -0.359,-0.048 -0.708,-0.132 -1.044,-0.252 v -2.808 c 0.265,0.12 0.569,0.222 0.918,0.306 0.348,0.084 0.642,0.126 0.882,0.126 0.624,0 1.146,-0.15 1.566,-0.45 0.42,-0.3 0.738,-0.726 0.954,-1.278 l 1.26,-3.132 -7.38,-18.504 h 3.456 l 5.437,15.228 h 0.071 l 5.22,-15.228 h 3.24 l -8.101,21.096 z"
       id="path3400"
       inkscape:connector-curvature="0"
       style="fill:#000000" /></g></g>
</g>
<g
   id="g3087"
   style="fill:#000000">
	<g
   id="g3089"
   style="fill:#000000">
		<g
   id="g3091"
   style="fill:#000000">
			<path
   fill="#FFFFFF"
   d="M78.133,24.799c0,0,12.373,0,14.856,0c5.453,0,7.944,3.636,7.944,6.959c0,2.394-0.92,3.939-3.389,5.376     c3.114,1.151,4.807,3.228,4.807,6.431c0,3.831-2.782,7.896-9.342,7.896c-3.637,0-14.883,0-14.883,0L78.133,24.799z      M86.246,45.441c0,0,3.459,0,5.376,0c1.915,0,2.776-1.369,2.776-2.58c0,0.561,0.246-2.209-2.504-2.209c-1.445,0-5.648,0-5.648,0     V45.441z M86.265,35.297c0,0,2.502,0,4.32,0c1.975,0,2.762-0.92,2.762-2.269c0-0.312-0.097-2.052-2.195-2.052     c0.958,0-4.887,0-4.887,0V35.297z"
   id="path3093"
   style="fill:#000000" />
			<path
   fill="#FFFFFF"
   d="M110.801,24.799h8.59l9.783,26.631h-8.816l-1.291-3.988h-8.23l-1.094,3.968h-8.75L110.801,24.799z      M114.746,32.702l-2.268,8.894h4.848L114.746,32.702z"
   id="path3095"
   style="fill:#000000" />
			<path
   fill="#FFFFFF"
   d="M142.875,32.719h8.191c0-4.521-3.402-8.718-11.475-8.718c-8.855,0-11.598,4.887-11.598,8.464     c0,5.768,7.059,7.301,7.277,7.369c1.055,0.332,5.436,1.506,6.529,1.896c0.947,0.339,1.854,1.098,1.854,2.111     c0,1.557-1.854,2.305-3.398,2.305c-0.99,0-4.322-0.328-4.322-3.859h-8.463c0,4.689,3.227,9.938,12.277,9.938     c9.988,0,12.078-5.959,12.078-9.126c0-2.586-1.465-5.454-4.846-6.819c-2.033-0.821-5.404-1.541-7.096-2.035     c-0.854-0.25-3.697-0.826-3.697-2.561c0-2.223,3.664-1.936,3.129-1.936C140.973,29.748,142.875,30.68,142.875,32.719z"
   id="path3097"
   style="fill:#000000" />
			<polygon
   fill="#FFFFFF"
   points="153.217,24.793 173.662,24.793 173.662,31.83 161.387,31.83 161.387,36.521 172.332,36.521      172.332,43.246 161.348,43.246 161.348,51.456 153.178,51.456    "
   id="polygon3099"
   style="fill:#000000" />
		</g>
		<path
   opacity="0.6"
   fill="#FFFFFF"
   d="M24.804,24.799v26.665h26.665V24.799H24.804z M43.264,43.259H33.008V33.003h10.256V43.259z"
   id="path3101"
   style="fill:#000000" />
		<rect
   x="59.673"
   y="33.003"
   opacity="0.6"
   fill="#FFFFFF"
   width="10.256"
   height="10.256"
   id="rect3103"
   style="fill:#000000" />
	</g>
</g>
</svg>